<svg xmlns="http://www.w3.org/2000/svg" style="display:none">
  <!-- FunnyEnglish Speaking Trainer — icon set. 24x24, stroke 2, round caps. -->
  <symbol id="i-mic" viewBox="0 0 24 24" fill="none" stroke="currentColor" stroke-width="2" stroke-linecap="round" stroke-linejoin="round">
    <rect x="9" y="2" width="6" height="12" rx="3"/>
    <path d="M5 10a7 7 0 0 0 14 0"/>
    <line x1="12" y1="17" x2="12" y2="21"/>
    <line x1="8" y1="21" x2="16" y2="21"/>
  </symbol>
  <symbol id="i-mic-off" viewBox="0 0 24 24" fill="none" stroke="currentColor" stroke-width="2" stroke-linecap="round" stroke-linejoin="round">
    <line x1="2" y1="2" x2="22" y2="22"/>
    <path d="M9 5v4a3 3 0 0 0 5.12 2.12"/>
    <path d="M15 9.34V5a3 3 0 0 0-5.94-.6"/>
    <path d="M5 10a7 7 0 0 0 11.9 5.1"/>
    <path d="M19 10a6.97 6.97 0 0 1-.5 2.6"/>
    <line x1="12" y1="17" x2="12" y2="21"/>
  </symbol>
  <symbol id="i-play" viewBox="0 0 24 24" fill="currentColor" stroke="none">
    <path d="M8 5.5v13a1 1 0 0 0 1.54.84l10-6.5a1 1 0 0 0 0-1.68l-10-6.5A1 1 0 0 0 8 5.5z"/>
  </symbol>
  <symbol id="i-pause" viewBox="0 0 24 24" fill="currentColor" stroke="none">
    <rect x="6" y="4" width="4" height="16" rx="1.5"/>
    <rect x="14" y="4" width="4" height="16" rx="1.5"/>
  </symbol>
  <symbol id="i-stop" viewBox="0 0 24 24" fill="currentColor" stroke="none">
    <rect x="6" y="6" width="12" height="12" rx="2.5"/>
  </symbol>
  <symbol id="i-delete" viewBox="0 0 24 24" fill="none" stroke="currentColor" stroke-width="2" stroke-linecap="round" stroke-linejoin="round">
    <path d="M3 6h18"/>
    <path d="M8 6V4a1 1 0 0 1 1-1h6a1 1 0 0 1 1 1v2"/>
    <path d="M19 6l-1 14a2 2 0 0 1-2 2H8a2 2 0 0 1-2-2L5 6"/>
    <line x1="10" y1="11" x2="10" y2="17"/>
    <line x1="14" y1="11" x2="14" y2="17"/>
  </symbol>
  <symbol id="i-refresh" viewBox="0 0 24 24" fill="none" stroke="currentColor" stroke-width="2" stroke-linecap="round" stroke-linejoin="round">
    <path d="M21 12a9 9 0 1 1-2.64-6.36"/>
    <polyline points="21 3 21 9 15 9"/>
  </symbol>
  <symbol id="i-cc" viewBox="0 0 24 24" fill="none" stroke="currentColor" stroke-width="2" stroke-linecap="round" stroke-linejoin="round">
    <rect x="2" y="4" width="20" height="16" rx="3"/>
    <path d="M10.5 10.2a2.5 2.5 0 1 0 0 3.6"/>
    <path d="M17.5 10.2a2.5 2.5 0 1 0 0 3.6"/>
  </symbol>
  <symbol id="i-lock" viewBox="0 0 24 24" fill="none" stroke="currentColor" stroke-width="2" stroke-linecap="round" stroke-linejoin="round">
    <rect x="4" y="11" width="16" height="10" rx="2.5"/>
    <path d="M8 11V7a4 4 0 0 1 8 0v4"/>
  </symbol>
  <symbol id="i-upload" viewBox="0 0 24 24" fill="none" stroke="currentColor" stroke-width="2" stroke-linecap="round" stroke-linejoin="round">
    <path d="M17.5 18.5a4.5 4.5 0 0 0 .42-8.98 6 6 0 0 0-11.7 1.62A4 4 0 0 0 7 18.5h10.5z"/>
    <polyline points="9 14 12 11 15 14"/>
    <line x1="12" y1="11" x2="12" y2="17"/>
  </symbol>
  <symbol id="i-check-circle" viewBox="0 0 24 24" fill="none" stroke="currentColor" stroke-width="2" stroke-linecap="round" stroke-linejoin="round">
    <circle cx="12" cy="12" r="9.5"/>
    <polyline points="7.5 12.5 10.5 15.5 16.5 8.5"/>
  </symbol>
  <symbol id="i-waveform" viewBox="0 0 24 24" fill="none" stroke="currentColor" stroke-width="2" stroke-linecap="round">
    <line x1="2" y1="10" x2="2" y2="14"/>
    <line x1="6" y1="7" x2="6" y2="17"/>
    <line x1="10" y1="4" x2="10" y2="20"/>
    <line x1="14" y1="8" x2="14" y2="16"/>
    <line x1="18" y1="5" x2="18" y2="19"/>
    <line x1="22" y1="10" x2="22" y2="14"/>
  </symbol>
  <symbol id="i-clock" viewBox="0 0 24 24" fill="none" stroke="currentColor" stroke-width="2" stroke-linecap="round" stroke-linejoin="round">
    <circle cx="12" cy="12" r="9.5"/>
    <polyline points="12 6.5 12 12 16 14"/>
  </symbol>
  <symbol id="i-chevron-right" viewBox="0 0 24 24" fill="none" stroke="currentColor" stroke-width="2" stroke-linecap="round" stroke-linejoin="round">
    <polyline points="9 5 16 12 9 19"/>
  </symbol>
  <symbol id="i-shield" viewBox="0 0 24 24" fill="none" stroke="currentColor" stroke-width="2" stroke-linecap="round" stroke-linejoin="round">
    <path d="M12 2.5 4.5 6v5.5c0 5 3.2 8.6 7.5 10 4.3-1.4 7.5-5 7.5-10V6z"/>
    <polyline points="8.5 12 11 14.5 15.5 9.5"/>
  </symbol>
</svg>
